<!-- Generated by IcoMoon.io -->
<svg version="1.1" xmlns="http://www.w3.org/2000/svg" width="32" height="32" viewBox="0 0 32 32">
<path fill="none" stroke-linejoin="round" stroke-linecap="butt" stroke-miterlimit="4" stroke-width="2" stroke="#000" d="M26 5c0.547 0 1 0.44 1 1v20c0 0.547-0.453 1-1 1h-20c-0.56 0-1-0.453-1-1v-20c0-0.56 0.44-1 1-1h20z"></path>
<path fill="none" stroke-linejoin="round" stroke-linecap="round" stroke-miterlimit="4" stroke-width="2" stroke="#000" d="M22 3v4"></path>
<path fill="none" stroke-linejoin="round" stroke-linecap="round" stroke-miterlimit="4" stroke-width="2" stroke="#000" d="M10 3v4"></path>
<path fill="none" stroke-linejoin="round" stroke-linecap="round" stroke-miterlimit="4" stroke-width="2" stroke="#000" d="M5 11h22"></path>
<path fill="none" stroke-linejoin="round" stroke-linecap="round" stroke-miterlimit="4" stroke-width="2" stroke="#000" d="M11.493 15.987h3.507l-2 2.507c0.32 0 0.64 0.080 0.933 0.24 0.293 0.147 0.547 0.373 0.72 0.653 0.187 0.267 0.293 0.587 0.333 0.907 0.027 0.333-0.013 0.667-0.147 0.96-0.12 0.307-0.32 0.573-0.573 0.787s-0.56 0.347-0.88 0.413c-0.32 0.067-0.653 0.053-0.973-0.040-0.32-0.107-0.6-0.267-0.84-0.507"></path>
<path fill="none" stroke-linejoin="round" stroke-linecap="round" stroke-miterlimit="4" stroke-width="2" stroke="#000" d="M18 17.493l2-1.507v6.507"></path>
</svg>
