<!-- Generated by IcoMoon.io -->
<svg version="1.1" xmlns="http://www.w3.org/2000/svg" width="98" height="32" viewBox="0 0 98 32">
<path fill="#656293" d="M10.026 0c0.624 0.132 1.257 0.255 1.88 0.404 0.492 0.123 0.975 0.281 1.459 0.422 0.606 0.176 1.221 0.343 1.819 0.527 0.914 0.272 1.81 0.554 2.715 0.826 0.571 0.176 1.151 0.334 1.722 0.501 0.931 0.272 1.854 0.562 2.785 0.835 0.633 0.185 1.265 0.343 1.889 0.536 0.87 0.264 1.74 0.554 2.61 0.817 0.36 0.105 0.721 0.185 1.081 0.29 0.606 0.176 1.204 0.369 1.81 0.554 0.466 0.141 0.94 0.281 1.45 0.431 0.255-0.167 0.554-0.387 0.87-0.562 0.835-0.474 2.047-0.211 2.662 0.554 0.659 0.826 0.826 1.749 0.721 2.794-0.079 0.791-0.431 1.424-0.852 2.056 0.026 0.026 0.044 0.053 0.062 0.070 0.193-0.149 0.413-0.281 0.562-0.466 0.228-0.281 0.413-0.589 0.58-0.905 0.167-0.334 0.334-0.641 0.844-0.624-0.202-0.176-0.369-0.264-0.431-0.395-0.070-0.141-0.044-0.334-0.044-0.501 0-0.264 0.149-0.351 0.378-0.281 0.624 0.193 1.248 0.404 1.872 0.598 0.571 0.176 1.151 0.343 1.722 0.51 0.36 0.097 0.712 0.202 1.072 0.299 0.070 0.026 0.149 0.026 0.22 0.044 0.018-0.738-0.773-1.898-1.494-2.074-0.861-0.211-1.696-0.536-2.548-0.8-0.211-0.070-0.431-0.123-0.659-0.158-0.615-0.105-1.019-0.536-1.45-0.931-0.158-0.141-0.316-0.281-0.474-0.431 0.026-0.035 0.044-0.070 0.070-0.105 0.29 0.053 0.58 0.079 0.861 0.167 0.8 0.246 1.573 0.562 2.381 0.764 0.466 0.114 0.94 0.281 1.467 0.176 0.562-0.105 1.151-0.070 1.731-0.123 1.221-0.123 2.452-0.281 3.682-0.404 1.16-0.114 2.329-0.202 3.488-0.308 0.896-0.070 1.784-0.132 2.68-0.22 1.151-0.114 2.293-0.255 3.444-0.378 1.318-0.141 2.636-0.264 3.954-0.395 0.237-0.026 0.474-0.026 0.712-0.053 1.406-0.141 2.794-0.29 4.2-0.413 1.265-0.114 2.531-0.202 3.796-0.316 1.485-0.132 2.97-0.281 4.464-0.431 0.87-0.079 1.731-0.158 2.601-0.246 0.316-0.035 0.624-0.114 0.94-0.132 0.756-0.062 1.476 0.132 2.197 0.343 0.949 0.281 1.924 0.51 2.882 0.764 0.545 0.141 1.090 0.29 1.626 0.466 0.123 0.035 0.211 0.176 0.36 0.299-0.123 0.079-0.185 0.149-0.264 0.167-0.685 0.176-1.38 0.325-2.065 0.501-0.404 0.105-0.808 0.237-1.213 0.343-0.457 0.114-0.923 0.202-1.38 0.325-0.729 0.176-1.441 0.369-2.162 0.554-0.466 0.114-0.931 0.211-1.388 0.334-0.808 0.202-1.617 0.422-2.425 0.615-0.773 0.193-1.564 0.351-2.337 0.545-0.703 0.167-1.406 0.351-2.109 0.536-0.712 0.176-1.415 0.369-2.126 0.554-0.808 0.211-1.617 0.422-2.425 0.615-0.791 0.193-1.59 0.351-2.381 0.545-0.597 0.149-1.186 0.308-1.766 0.483-0.624 0.193-1.239 0.404-1.863 0.615-0.615 0.202-1.23 0.422-1.854 0.615-0.606 0.193-1.213 0.36-1.819 0.536-0.062 0.018-0.105 0.088-0.149 0.141 0.044 0.044 0.088 0.123 0.141 0.141 0.852 0.246 1.696 0.483 2.539 0.729 0.606 0.185 1.213 0.369 1.801 0.589 0.351 0.141 0.589-0.114 0.852-0.22 0.597-0.237 1.177-0.545 1.766-0.835 0.668-0.325 1.327-0.668 1.986-1.002 0.808-0.422 1.617-0.835 2.425-1.257 0.589-0.308 1.177-0.615 1.757-0.94 0.475-0.264 0.879-0.009 1.3 0.114 0.65 0.202 1.292 0.404 1.933 0.615 0.378 0.114 0.747 0.237 1.116 0.378 0.228 0.088 0.255 0.228 0.123 0.457-0.58 1.011-1.142 2.039-1.713 3.058-0.132 0.246-0.299 0.448-0.615 0.475-1.265 0.088-2.531 0.185-3.805 0.272-0.088 0.009-0.193-0.062-0.29-0.097 0.044-0.097 0.053-0.22 0.114-0.281 1.072-1.037 2.153-2.056 3.234-3.075 0.061-0.062 0.158-0.088 0.281-0.149-0.053-0.088-0.088-0.211-0.158-0.228-0.483-0.158-0.94-0.308-1.45 0.009-0.677 0.413-1.406 0.738-2.109 1.116-0.439 0.228-0.861 0.483-1.3 0.721-0.94 0.501-1.889 1.002-2.829 1.503-0.764 0.404-1.511 0.826-2.285 1.221-0.141 0.070-0.36 0.097-0.51 0.053-0.808-0.237-1.608-0.518-2.416-0.764-0.817-0.255-1.652-0.475-2.469-0.712-0.835-0.237-1.67-0.475-2.504-0.729-0.404-0.123-0.782 0-1.16 0.105-0.29 0.088-0.562 0.22-0.835 0.334 0.009 0.044 0.009 0.079 0.018 0.114 0.58 0.202 1.16 0.404 1.749 0.606-0.009 0.026-0.018 0.053-0.026 0.079-0.36-0.097-0.729-0.22-1.098-0.299-0.677-0.132-1.318-0.422-2.065-0.097-0.8 0.351-1.678 0.518-2.522 0.782-0.949 0.299-1.889 0.615-2.865 1.010 0.387 0.141 0.764 0.299 1.151 0.413 0.659 0.193 1.336 0.351 1.995 0.545 0.659 0.185 1.318 0.395 1.977 0.589 0.668 0.202 1.336 0.413 2.012 0.598 0.422 0.123 0.861 0.211 1.292 0.29 0.58 0.105 1.16 0.193 1.74 0.281 1.353 0.193 2.706 0.422 4.068 0.571 1.397 0.149 2.803 0.237 4.209 0.325 1.309 0.088 2.619 0.149 3.937 0.22 0.105 0.009 0.211-0.009 0.325-0.061-0.395-0.176-0.791-0.369-1.195-0.536-0.659-0.264-1.327-0.51-1.986-0.764-0.51-0.202-1.019-0.413-1.529-0.615-0.431-0.167-0.852-0.343-1.292-0.501-0.185-0.070-0.387-0.097-0.58-0.167-0.158-0.053-0.308-0.132-0.439-0.228-0.035-0.026-0.009-0.237 0.035-0.264 0.562-0.255 1.116-0.562 1.713-0.712 0.738-0.176 1.52-0.211 2.285-0.308 0.246-0.035 0.492-0.079 0.738-0.097 1.195-0.105 2.399-0.202 3.594-0.316 1.459-0.132 2.909-0.29 4.367-0.431 0.923-0.088 1.845-0.176 2.777-0.246 0.369-0.035 0.738-0.044 1.107-0.035 0.975 0.035 1.793 0.562 2.671 0.887 0.729 0.272 1.467 0.527 2.197 0.773 0.65 0.211 1.3 0.413 1.951 0.615 0.343 0.105 0.703 0.176 1.046 0.281 0.694 0.202 1.371 0.413 2.056 0.624 0.272 0.079 0.545 0.149 0.817 0.228 0.633 0.185 1.274 0.36 1.907 0.554 0.501 0.149 0.993 0.334 1.485 0.51-0.009 0.035-0.009 0.070-0.018 0.105-0.404-0.079-0.808-0.149-1.213-0.237-0.431-0.105-0.861-0.237-1.292-0.351-0.8-0.211-1.59-0.422-2.39-0.624-0.369-0.097-0.747-0.167-1.116-0.272-0.721-0.185-1.432-0.387-2.144-0.58-0.316-0.088-0.633-0.176-0.949-0.237-0.694-0.149-1.353-0.501-2.091-0.272-0.272 0.079-0.545 0.149-0.817 0.228-0.694 0.193-1.38 0.404-2.074 0.589-0.343 0.097-0.685 0.158-1.019 0.237-0.685 0.176-1.362 0.343-2.039 0.527-0.264 0.070-0.527 0.167-0.852 0.272 0.105 0.070 0.176 0.158 0.272 0.185 0.351 0.105 0.712 0.193 1.063 0.299 0.378 0.105 0.756 0.211 1.134 0.325 0.413 0.123 0.817 0.246 1.221 0.369 0.387 0.123 0.773 0.246 1.16 0.36 0.369 0.105 0.738 0.193 1.107 0.308 0.668 0.202 1.336 0.404 2.003 0.606 0.281 0.088 0.571 0.176 0.87 0.255 0.571 0.167 1.142 0.316 1.722 0.483 0.694 0.202 1.388 0.431 2.091 0.633 0.606 0.176 1.213 0.334 1.819 0.51 0.694 0.202 1.38 0.422 2.074 0.624 0.615 0.185 1.23 0.351 1.845 0.536 0.448 0.132 0.888 0.29 1.336 0.431 0.316 0.097 0.633 0.193 0.949 0.29 0.132 0.035 0.246 0.079 0.369 0.123 0 0.026-0.009 0.053-0.018 0.088-0.589-0.149-1.177-0.29-1.766-0.431-0.378-0.088-0.764-0.167-1.142-0.264-0.395-0.114-0.791-0.246-1.186-0.36-0.29-0.088-0.589-0.158-0.888-0.228-0.659-0.176-1.327-0.334-1.986-0.518-0.685-0.185-1.362-0.395-2.039-0.598-0.334-0.097-0.677-0.176-1.010-0.264-0.764-0.211-1.52-0.431-2.276-0.641-0.281-0.079-0.571-0.141-0.852-0.22-0.633-0.167-1.265-0.334-1.889-0.518-0.641-0.185-1.283-0.404-1.924-0.589-0.65-0.185-1.309-0.351-1.96-0.527-0.334-0.088-0.668-0.202-1.002-0.299-0.685-0.202-1.38-0.413-2.074-0.589-0.193-0.053-0.422-0.009-0.668-0.009 0.035 0.097 0.044 0.149 0.070 0.176 0.378 0.281 0.246 0.641 0.123 0.984-0.185 0.545-0.378 1.090-0.606 1.608-0.070 0.185-0.246 0.334-0.413 0.448-0.105 0.079-0.272 0.097-0.422 0.114-1.090 0.114-2.188 0.22-3.278 0.316-0.914 0.088-1.836 0.141-2.75 0.22-0.492 0.035-0.685 0.351-0.51 0.808 0.018 0.053 0.097 0.114 0.167 0.132 0.65 0.185 1.309 0.334 1.951 0.527 0.87 0.255 1.731 0.562 2.601 0.817 0.659 0.202 1.327 0.343 1.995 0.518 0.264 0.070 0.518 0.158 0.773 0.237 0.65 0.22 1.3 0.439 1.951 0.65 0.325 0.097 0.659 0.149 0.984 0.255 0.475 0.149 0.94 0.316 1.415 0.474-0.009 0.035-0.018 0.070-0.026 0.105-0.351-0.079-0.703-0.149-1.054-0.228-0.466-0.105-0.923-0.211-1.38-0.334-0.703-0.185-1.406-0.387-2.118-0.571-0.343-0.097-0.694-0.167-1.046-0.264-0.791-0.211-1.582-0.448-2.373-0.65-0.694-0.185-1.406-0.334-2.1-0.501-0.255-0.061-0.501-0.141-0.747-0.22-0.659-0.202-1.327-0.369-1.968-0.615-0.738-0.272-1.45-0.606-2.17-0.905-0.141-0.053-0.316-0.044-0.474-0.044-1.459-0.018-2.909 0.009-4.367-0.061-1.248-0.061-2.495-0.237-3.743-0.369-0.65-0.079-1.309-0.132-1.942-0.272-1.090-0.246-2.17-0.545-3.251-0.826-0.633-0.167-1.265-0.334-1.898-0.518-0.615-0.176-1.23-0.36-1.845-0.536-0.677-0.193-1.362-0.378-2.047-0.571-0.281-0.079-0.562-0.167-0.844-0.255-0.624-0.193-1.239-0.395-1.872-0.58-0.571-0.176-1.151-0.334-1.731-0.483-0.158-0.044-0.334-0.009-0.527-0.009 0.053 0.264-0.088 0.36-0.308 0.474-0.773 0.387-1.529 0.817-2.293 1.221-0.633 0.334-1.274 0.659-1.924 0.967-0.852 0.404-1.643 0.887-2.355 1.494-0.395 0.334-0.817 0.641-1.221 0.958-0.246 0.202-0.51 0.123-0.773 0.053-0.633-0.158-1.274-0.29-1.898-0.474-0.343-0.105-0.554-0.378-0.606-0.756-0.061-0.536-0.141-1.072-0.211-1.617-0.079-0.694-0.123-1.397-0.255-2.091-0.035-0.167-0.299-0.343-0.492-0.439-1.248-0.589-1.678-2.241-1.274-3.383 0.079-0.228 0.343-0.272 0.501-0.035 0.422 0.624 1.090 0.808 1.749 0.993 0.149 0.044 0.395 0.158 0.466-0.149 0.088-0.343-0.009-0.536-0.299-0.624-1.186-0.36-2.372-0.721-3.559-1.072-0.624-0.185-1.248-0.325-1.863-0.501-0.879-0.255-1.749-0.536-2.619-0.791-0.624-0.193-1.257-0.36-1.88-0.545-0.694-0.202-1.38-0.422-2.074-0.624-0.598-0.176-1.204-0.316-1.793-0.518-0.861-0.299-1.731-0.589-2.557-0.967-1.046-0.475-1.995-1.134-2.821-1.942-0.483-0.466-0.949-0.949-1.371-1.467-0.176-0.22-0.237-0.527-0.351-0.8 0-0.316 0-0.641 0-0.958 0.334-1.046 1.054-1.775 1.968-2.337 0.738-0.457 1.494-0.896 2.241-1.353 0.677-0.404 1.388-0.729 2.17-0.896 0.536-0.114 1.063-0.255 1.599-0.387 0.677 0 1.362 0 2.047 0zM13.093 9.947c0.123 0.211 0.782 0.413 1.090 0.325-0.308-0.325-0.721-0.255-1.098-0.316-0.044-0.053-0.079-0.141-0.132-0.158-0.518-0.167-1.037-0.316-1.555-0.483-0.51-0.158-1.019-0.316-1.538-0.475-0.334-0.097-0.668-0.176-1.002-0.281-0.378-0.114-0.738-0.246-1.107-0.378-0.149-0.053-0.281-0.114-0.431-0.167-0.334-0.105-0.668-0.202-1.002-0.308-0.009 0.044-0.026 0.088-0.035 0.132 0.351 0.123 0.703 0.237 1.054 0.369 0.308 0.114 0.606 0.255 0.914 0.36 0.756 0.264 1.503 0.51 2.267 0.747 0.325 0.105 0.685 0.141 1.002 0.272 0.51 0.202 1.019 0.36 1.573 0.36zM30.35 8.251c-0.8 0.097-1.555 0.202-2.32 0.29-0.65 0.070-1.309 0.123-1.959 0.202-0.87 0.105-1.731 0.22-2.601 0.334-0.466 0.062-0.94 0.123-1.415 0.185-0.22 0.026-0.448 0.062-0.677 0.079-0.070 0-0.167-0.053-0.22-0.105-0.018-0.026 0.035-0.158 0.079-0.193 0.466-0.325 0.931-0.633 1.397-0.949 0.228-0.149 0.466-0.29 0.694-0.439-0.984-0.343-1.933-0.589-2.882-0.844-0.589-0.158-1.177-0.308-1.757-0.483-0.641-0.185-1.265-0.404-1.898-0.589-0.58-0.176-1.169-0.316-1.757-0.492-0.070-0.018-0.123-0.123-0.185-0.193 0.079-0.053 0.149-0.141 0.237-0.149 0.176-0.018 0.369-0.009 0.545 0.035 0.554 0.132 1.107 0.29 1.661 0.431 0.721 0.185 1.45 0.343 2.17 0.536 0.773 0.193 1.538 0.422 2.311 0.633 0.589 0.158 1.177 0.299 1.757 0.483 0.756 0.255 1.503 0.422 2.32 0.264 0.589-0.114 1.204-0.097 1.81-0.141-0.097-0.132-0.202-0.211-0.325-0.246-0.369-0.105-0.738-0.185-1.107-0.29-0.58-0.158-1.151-0.334-1.722-0.51-0.615-0.185-1.221-0.395-1.836-0.571-0.677-0.193-1.353-0.343-2.030-0.545-1.090-0.325-2.17-0.694-3.251-1.019-1.019-0.316-2.030-0.606-3.049-0.905-0.923-0.264-1.854-0.501-2.768-0.791-1.125-0.351-2.276-0.413-3.436-0.351-0.272 0.018-0.554 0.070-0.817 0.281 0.387 0.149 0.826 0.026 1.090 0.51-0.387 0.132-0.721 0.308-1.072 0.351-0.852 0.097-1.713 0.132-2.575 0.193-0.105 0.009-0.246-0.009-0.325 0.044-0.703 0.448-1.397 0.914-2.074 1.388-0.132 0.088-0.193 0.272-0.343 0.474 0.36 0.061 0.606 0.114 0.861 0.149 0.422 0.061 0.852 0.044 1.248 0.167 1.028 0.316 2.039 0.703 3.058 1.054 0.351 0.114 0.721 0.193 1.072 0.299 0.422 0.123 0.844 0.255 1.265 0.378 0.615 0.176 1.239 0.343 1.854 0.527 0.387 0.114 0.773 0.246 1.16 0.36 0.633 0.185 1.257 0.351 1.889 0.536 0.967 0.272 1.924 0.554 2.891 0.835 0.589 0.167 1.186 0.29 1.757 0.51 0.413 0.149 0.8 0.264 1.248 0.185 0.545-0.088 1.090-0.149 1.643-0.22 1.107-0.141 2.223-0.281 3.339-0.404 0.545-0.070 1.107-0.088 1.652-0.149 1.002-0.123 2.003-0.272 2.996-0.387 0.439-0.053 0.457-0.053 0.431-0.492 0-0.079-0.018-0.158-0.035-0.255zM58.187 5.184c-0.009-0.044-0.018-0.097-0.026-0.141-0.255 0.009-0.51 0.009-0.764 0.044-1.046 0.132-2.091 0.272-3.146 0.404-1.142 0.141-2.285 0.281-3.436 0.413-0.343 0.035-0.703 0.026-1.046 0.070-1.011 0.123-2.021 0.272-3.032 0.395-0.36 0.044-0.729 0.035-1.090 0.070-1.274 0.141-2.557 0.299-3.84 0.448-0.097 0.009-0.185 0.061-0.272 0.097 0.053 0.088 0.088 0.202 0.158 0.246 0.132 0.088 0.29 0.202 0.431 0.185 0.914-0.070 1.828-0.158 2.733-0.281 1.327-0.185 2.636-0.404 3.963-0.598 0.747-0.114 1.503-0.176 2.249-0.281 0.958-0.132 1.907-0.281 2.856-0.431 0.817-0.132 1.643-0.272 2.469-0.404 0.237-0.035 0.474-0.009 0.712-0.044 0.36-0.053 0.721-0.123 1.081-0.193zM22.416 17.275c-0.176-0.624-0.026-0.791 0.589-0.659 0.685 0.141 1.371 0.29 2.056 0.431 0.905 0.185 1.81 0.351 2.715 0.554 1.116 0.255 2.223 0.536 3.33 0.8 0.185 0.044 0.378 0 0.571 0-0.228-0.132-0.457-0.228-0.694-0.299-0.395-0.114-0.8-0.202-1.186-0.316-0.641-0.193-1.274-0.395-1.916-0.58-0.633-0.185-1.274-0.36-1.916-0.545-0.624-0.185-1.239-0.378-1.863-0.571-0.466-0.141-0.931-0.281-1.388-0.422-0.22-0.062-0.404-0.088-0.474 0.202-0.088 0.404-0.193 0.808-0.281 1.213-0.026 0.079-0.026 0.167-0.035 0.264 0.185-0.026 0.343-0.053 0.492-0.070zM31.422 8.567c0.378-0.36 0.703-0.756 1.107-1.019 0.404-0.272 0.896-0.413 1.344-0.606-0.483-0.712-1.257-0.659-1.757-0.299-0.606 0.439-0.914 1.239-0.694 1.924zM15.764 10.826c0.009-0.035 0.018-0.070 0.026-0.114-0.299-0.088-0.589-0.185-0.887-0.272-0.009 0.044-0.026 0.097-0.035 0.141 0.299 0.088 0.598 0.167 0.896 0.246z"></path>
<path fill="#656293" d="M33.478 20.737c0.422 0.097 0.844 0.185 1.257 0.29s0.826 0.22 1.23 0.343c0.685 0.202 1.353 0.422 2.039 0.624 0.641 0.185 1.3 0.343 1.951 0.518 0.351 0.105 0.685 0.228 1.028 0.334 0.29 0.088 0.589 0.167 0.879 0.246 0.633 0.176 1.265 0.343 1.889 0.527 0.606 0.176 1.204 0.378 1.81 0.562 0.369 0.114 0.756 0.202 1.134 0.308 0.677 0.211 1.353 0.431 2.030 0.633 0.659 0.185 1.327 0.351 1.986 0.527 0.228 0.061 0.448 0.132 0.677 0.202 0.633 0.193 1.265 0.395 1.898 0.589 0.334 0.097 0.668 0.193 1.002 0.299 0.729 0.211 1.467 0.431 2.197 0.641 0.272 0.079 0.536 0.149 0.808 0.22 0.633 0.176 1.257 0.343 1.88 0.527 0.65 0.185 1.292 0.387 1.942 0.589 0.281 0.088 0.554 0.167 0.835 0.246 0.641 0.185 1.283 0.343 1.916 0.536 0.641 0.185 1.265 0.395 1.907 0.589 0.272 0.088 0.554 0.176 0.835 0.246 0.668 0.185 1.327 0.36 1.986 0.554 1.046 0.308 2.083 0.633 3.119 0.958 0.035 0.009 0.070 0.053 0.088 0.149-0.299-0.053-0.589-0.097-0.879-0.167-0.677-0.167-1.353-0.334-2.021-0.518-0.615-0.158-1.23-0.343-1.845-0.518-0.431-0.114-0.87-0.237-1.3-0.36-0.659-0.185-1.318-0.369-1.977-0.562-0.316-0.088-0.624-0.185-0.94-0.272-0.641-0.167-1.292-0.325-1.924-0.501-0.685-0.193-1.362-0.413-2.039-0.615-0.281-0.079-0.562-0.149-0.852-0.22-0.413-0.105-0.826-0.202-1.239-0.308-0.237-0.061-0.474-0.141-0.712-0.211-0.641-0.193-1.292-0.395-1.933-0.58-0.316-0.097-0.633-0.176-0.949-0.264-0.773-0.22-1.555-0.457-2.337-0.668-0.65-0.185-1.309-0.316-1.959-0.501-0.65-0.176-1.292-0.395-1.942-0.589-0.606-0.176-1.213-0.343-1.819-0.518-0.694-0.202-1.38-0.422-2.065-0.624-0.281-0.088-0.562-0.167-0.835-0.246-0.747-0.228-1.485-0.457-2.223-0.685-0.589-0.176-1.186-0.334-1.775-0.527-0.8-0.272-1.582-0.562-2.381-0.844-0.756-0.272-1.52-0.536-2.285-0.8-0.035-0.018-0.079-0.035-0.114-0.044 0.009-0.035 0.018-0.070 0.026-0.114z"></path>
<path fill="#656293" d="M34.287 19.903c0.343 0.079 0.694 0.141 1.037 0.228 0.448 0.105 0.896 0.22 1.336 0.351 0.589 0.167 1.177 0.36 1.775 0.536 0.36 0.114 0.721 0.22 1.090 0.325 0.677 0.202 1.353 0.413 2.030 0.615 0.351 0.097 0.703 0.176 1.046 0.281 0.694 0.211 1.388 0.439 2.1 0.641 0.659 0.193 1.327 0.343 1.986 0.527 0.633 0.185 1.248 0.395 1.872 0.58 0.378 0.114 0.756 0.202 1.142 0.308 0.325 0.088 0.65 0.176 0.975 0.281 0.395 0.123 0.791 0.255 1.186 0.378 0.685 0.202 1.38 0.413 2.074 0.606 0.65 0.185 1.3 0.351 1.951 0.536 0.369 0.105 0.729 0.246 1.098 0.36 0.334 0.097 0.668 0.185 1.002 0.281 0.729 0.22 1.459 0.439 2.188 0.659 0.281 0.079 0.562 0.141 0.844 0.22 0.773 0.237 1.547 0.483 2.329 0.703 0.668 0.193 1.353 0.334 2.021 0.527 0.597 0.185 1.186 0.413 1.784 0.615 0.308 0.097 0.624 0.176 0.931 0.264 0.404 0.114 0.8 0.237 1.186 0.36 0.035 0.009 0.061 0.061 0.061 0.176-0.624-0.167-1.239-0.343-1.863-0.492-0.685-0.176-1.38-0.316-2.065-0.501-0.677-0.176-1.336-0.387-2.012-0.571-0.378-0.105-0.764-0.185-1.142-0.281-0.395-0.114-0.782-0.255-1.186-0.369-0.351-0.097-0.712-0.185-1.072-0.281-0.738-0.202-1.467-0.413-2.206-0.615-0.299-0.079-0.606-0.158-0.914-0.237-1.195-0.316-2.399-0.624-3.594-0.958-0.641-0.176-1.265-0.404-1.898-0.598-0.29-0.088-0.58-0.149-0.879-0.228-0.597-0.167-1.195-0.334-1.784-0.501-0.694-0.202-1.38-0.422-2.074-0.624-0.29-0.088-0.58-0.167-0.879-0.246-0.896-0.246-1.801-0.474-2.698-0.738-0.844-0.255-1.67-0.554-2.504-0.817-0.58-0.185-1.169-0.351-1.74-0.536-0.518-0.167-1.019-0.351-1.529-0.527-0.58-0.202-1.169-0.395-1.74-0.615-0.439-0.167-0.861-0.378-1.283-0.562 0-0.018 0.009-0.044 0.018-0.061z"></path>
<path fill="#656293" d="M50.912 31.818c-0.896-0.22-1.801-0.439-2.698-0.668-0.316-0.070-0.633-0.141-0.958-0.22-1.002-0.246-2.012-0.474-3.014-0.738-0.923-0.237-1.836-0.527-2.759-0.782-0.65-0.185-1.309-0.351-1.959-0.527-0.281-0.079-0.562-0.167-0.844-0.255-1.134-0.343-2.276-0.703-3.418-1.037-0.668-0.202-1.353-0.343-2.021-0.536-0.852-0.246-1.696-0.518-2.539-0.791-0.589-0.185-1.186-0.36-1.766-0.562-0.685-0.246-1.371-0.51-2.047-0.782-0.325-0.123-0.641-0.272-0.958-0.413 0.009-0.044 0.026-0.079 0.035-0.123 0.316 0.079 0.641 0.158 0.958 0.237 0.413 0.114 0.826 0.22 1.239 0.343 0.65 0.193 1.292 0.395 1.942 0.589 0.36 0.105 0.738 0.193 1.107 0.299 0.668 0.202 1.327 0.413 1.995 0.615 0.299 0.088 0.597 0.176 0.905 0.255 0.387 0.105 0.791 0.193 1.177 0.29 0.211 0.061 0.404 0.141 0.615 0.202 0.641 0.202 1.283 0.404 1.924 0.598 0.29 0.088 0.58 0.176 0.87 0.264 0.615 0.167 1.239 0.325 1.854 0.501 0.606 0.176 1.213 0.369 1.81 0.545 0.369 0.114 0.738 0.22 1.107 0.325 0.721 0.211 1.441 0.431 2.162 0.641 0.281 0.088 0.562 0.167 0.844 0.246 0.641 0.176 1.292 0.325 1.916 0.527 0.641 0.202 1.265 0.457 1.898 0.677 0.211 0.070 0.439 0.097 0.659 0.149-0.018 0.044-0.026 0.088-0.035 0.132z"></path>
<path fill="#656293" d="M84.215 5.044c2.364 0.562 4.683 1.3 7.012 1.968 2.337 0.668 4.648 1.406 6.968 2.109-0.009 0.035-0.018 0.070-0.026 0.105-0.167-0.026-0.343-0.053-0.51-0.088-0.351-0.070-0.694-0.158-1.046-0.228-0.439-0.105-0.879-0.185-1.318-0.299-0.413-0.097-0.817-0.228-1.23-0.343-0.404-0.105-0.817-0.185-1.221-0.29-0.8-0.202-1.59-0.404-2.381-0.615-0.659-0.176-1.309-0.351-1.951-0.536-0.246-0.070-0.483-0.149-0.712-0.228-0.844-0.308-1.687-0.606-2.531-0.931-0.369-0.141-0.721-0.334-1.081-0.51 0.009-0.035 0.018-0.079 0.026-0.114z"></path>
</svg>
