<svg xmlns="http://www.w3.org/2000/svg" aria-hidden="true" style="position:absolute;width:0;height:0;overflow:hidden"><defs><symbol id="icon-arrow" viewBox="0 0 32 32"><path stroke-linecap="round" stroke-linejoin="round" stroke-width="3" d="M5 16h22M18 7l9 9-9 9"/></symbol><symbol id="icon-arrows-path" viewBox="0 0 32 32"><path stroke-linecap="round" stroke-linejoin="round" stroke-width="2" d="m21.982 17.985 4.016 3.997-4.016 4.016M5.995 21.982h20.003M9.992 13.989 5.995 9.992l3.997-3.997M25.998 9.992H5.995"/></symbol><symbol id="icon-calendar" viewBox="0 0 32 32"><path stroke-linejoin="round" stroke-width="2" d="M26 5c.547 0 1 .44 1 1v20c0 .547-.453 1-1 1H6c-.56 0-1-.453-1-1V6c0-.56.44-1 1-1h20z"/><path stroke-linecap="round" stroke-linejoin="round" stroke-width="2" d="M22 3v4M10 3v4M5 11h22M11.493 15.987H15l-2 2.507c.32 0 .64.08.933.24.293.147.547.373.72.653.187.267.293.587.333.907.027.333-.013.667-.147.96-.12.307-.32.573-.573.787s-.56.347-.88.413c-.32.067-.653.053-.973-.04-.32-.107-.6-.267-.84-.507M18 17.493l2-1.507v6.507"/></symbol><symbol id="icon-chek-box" viewBox="0 0 32 32"><path d="M16 0C7.168 0 0 7.168 0 16c0 8.816 7.168 16 16 16 8.816 0 16-7.184 16-16 0-8.832-7.184-16-16-16zm-3.2 23.056L6.848 17.12l2.272-2.256 3.664 3.664 8.48-8.464 2.256 2.256L12.8 23.056z"/></symbol><symbol id="icon-drop-down" viewBox="0 0 50 32"><path d="m2.021 11.845 18.047 18.116c2.717 2.648 7.107 2.648 9.825 0L47.94 11.845C52.33 7.455 49.194 0 42.993 0H6.9C.699 0-2.367 7.456 2.022 11.845z"/></symbol><symbol id="icon-logo" viewBox="0 0 98 32"><path fill="#656293" d="M10.026 0c.624.132 1.257.255 1.88.404.492.123.975.281 1.459.422.606.176 1.221.343 1.819.527.914.272 1.81.554 2.715.826.571.176 1.151.334 1.722.501.931.272 1.854.562 2.785.835.633.185 1.265.343 1.889.536.87.264 1.74.554 2.61.817.36.105.721.185 1.081.29.606.176 1.204.369 1.81.554.466.141.94.281 1.45.431.255-.167.554-.387.87-.562.835-.474 2.047-.211 2.662.554.659.826.826 1.749.721 2.794-.079.791-.431 1.424-.852 2.056.026.026.044.053.062.07.193-.149.413-.281.562-.466.228-.281.413-.589.58-.905.167-.334.334-.641.844-.624-.202-.176-.369-.264-.431-.395-.07-.141-.044-.334-.044-.501 0-.264.149-.351.378-.281.624.193 1.248.404 1.872.598.571.176 1.151.343 1.722.51.36.097.712.202 1.072.299.07.026.149.026.22.044.018-.738-.773-1.898-1.494-2.074-.861-.211-1.696-.536-2.548-.8a4.035 4.035 0 0 0-.659-.158c-.615-.105-1.019-.536-1.45-.931-.158-.141-.316-.281-.474-.431.026-.035.044-.07.07-.105.29.053.58.079.861.167.8.246 1.573.562 2.381.764.466.114.94.281 1.467.176.562-.105 1.151-.07 1.731-.123 1.221-.123 2.452-.281 3.682-.404 1.16-.114 2.329-.202 3.488-.308.896-.07 1.784-.132 2.68-.22 1.151-.114 2.293-.255 3.444-.378 1.318-.141 2.636-.264 3.954-.395.237-.026.474-.026.712-.053 1.406-.141 2.794-.29 4.2-.413 1.265-.114 2.531-.202 3.796-.316 1.485-.132 2.97-.281 4.464-.431.87-.079 1.731-.158 2.601-.246.316-.035.624-.114.94-.132.756-.062 1.476.132 2.197.343.949.281 1.924.51 2.882.764.545.141 1.09.29 1.626.466.123.035.211.176.36.299-.123.079-.185.149-.264.167-.685.176-1.38.325-2.065.501-.404.105-.808.237-1.213.343-.457.114-.923.202-1.38.325-.729.176-1.441.369-2.162.554-.466.114-.931.211-1.388.334-.808.202-1.617.422-2.425.615-.773.193-1.564.351-2.337.545a90.48 90.48 0 0 0-2.109.536c-.712.176-1.415.369-2.126.554-.808.211-1.617.422-2.425.615-.791.193-1.59.351-2.381.545a37.8 37.8 0 0 0-1.766.483c-.624.193-1.239.404-1.863.615-.615.202-1.23.422-1.854.615-.606.193-1.213.36-1.819.536-.062.018-.105.088-.149.141.044.044.088.123.141.141.852.246 1.696.483 2.539.729.606.185 1.213.369 1.801.589.351.141.589-.114.852-.22.597-.237 1.177-.545 1.766-.835.668-.325 1.327-.668 1.986-1.002.808-.422 1.617-.835 2.425-1.257.589-.308 1.177-.615 1.757-.94.475-.264.879-.009 1.3.114.65.202 1.292.404 1.933.615.378.114.747.237 1.116.378.228.088.255.228.123.457-.58 1.011-1.142 2.039-1.713 3.058-.132.246-.299.448-.615.475-1.265.088-2.531.185-3.805.272-.088.009-.193-.062-.29-.097.044-.097.053-.22.114-.281 1.072-1.037 2.153-2.056 3.234-3.075.061-.062.158-.088.281-.149-.053-.088-.088-.211-.158-.228-.483-.158-.94-.308-1.45.009-.677.413-1.406.738-2.109 1.116-.439.228-.861.483-1.3.721-.94.501-1.889 1.002-2.829 1.503-.764.404-1.511.826-2.285 1.221a.788.788 0 0 1-.51.053c-.808-.237-1.608-.518-2.416-.764-.817-.255-1.652-.475-2.469-.712-.835-.237-1.67-.475-2.504-.729-.404-.123-.782 0-1.16.105-.29.088-.562.22-.835.334.009.044.009.079.018.114.58.202 1.16.404 1.749.606a2.427 2.427 0 0 0-.026.079c-.36-.097-.729-.22-1.098-.299-.677-.132-1.318-.422-2.065-.097-.8.351-1.678.518-2.522.782-.949.299-1.889.615-2.865 1.01.387.141.764.299 1.151.413.659.193 1.336.351 1.995.545.659.185 1.318.395 1.977.589.668.202 1.336.413 2.012.598.422.123.861.211 1.292.29.58.105 1.16.193 1.74.281 1.353.193 2.706.422 4.068.571 1.397.149 2.803.237 4.209.325 1.309.088 2.619.149 3.937.22a.635.635 0 0 0 .325-.061c-.395-.176-.791-.369-1.195-.536-.659-.264-1.327-.51-1.986-.764-.51-.202-1.019-.413-1.529-.615-.431-.167-.852-.343-1.292-.501-.185-.07-.387-.097-.58-.167a1.621 1.621 0 0 1-.439-.228c-.035-.026-.009-.237.035-.264.562-.255 1.116-.562 1.713-.712.738-.176 1.52-.211 2.285-.308.246-.035.492-.079.738-.097 1.195-.105 2.399-.202 3.594-.316 1.459-.132 2.909-.29 4.367-.431.923-.088 1.845-.176 2.777-.246.369-.035.738-.044 1.107-.035.975.035 1.793.562 2.671.887.729.272 1.467.527 2.197.773.65.211 1.3.413 1.951.615.343.105.703.176 1.046.281.694.202 1.371.413 2.056.624.272.079.545.149.817.228.633.185 1.274.36 1.907.554.501.149.993.334 1.485.51-.009.035-.009.07-.018.105-.404-.079-.808-.149-1.213-.237-.431-.105-.861-.237-1.292-.351-.8-.211-1.59-.422-2.39-.624-.369-.097-.747-.167-1.116-.272-.721-.185-1.432-.387-2.144-.58a12.18 12.18 0 0 0-.949-.237c-.694-.149-1.353-.501-2.091-.272-.272.079-.545.149-.817.228-.694.193-1.38.404-2.074.589-.343.097-.685.158-1.019.237-.685.176-1.362.343-2.039.527-.264.07-.527.167-.852.272.105.07.176.158.272.185.351.105.712.193 1.063.299.378.105.756.211 1.134.325.413.123.817.246 1.221.369.387.123.773.246 1.16.36.369.105.738.193 1.107.308l2.003.606c.281.088.571.176.87.255.571.167 1.142.316 1.722.483.694.202 1.388.431 2.091.633.606.176 1.213.334 1.819.51.694.202 1.38.422 2.074.624.615.185 1.23.351 1.845.536.448.132.888.29 1.336.431l.949.29c.132.035.246.079.369.123 0 .026-.009.053-.018.088a141.73 141.73 0 0 0-1.766-.431c-.378-.088-.764-.167-1.142-.264-.395-.114-.791-.246-1.186-.36-.29-.088-.589-.158-.888-.228-.659-.176-1.327-.334-1.986-.518-.685-.185-1.362-.395-2.039-.598-.334-.097-.677-.176-1.01-.264-.764-.211-1.52-.431-2.276-.641-.281-.079-.571-.141-.852-.22a68.12 68.12 0 0 1-1.889-.518c-.641-.185-1.283-.404-1.924-.589-.65-.185-1.309-.351-1.96-.527-.334-.088-.668-.202-1.002-.299-.685-.202-1.38-.413-2.074-.589-.193-.053-.422-.009-.668-.009.035.097.044.149.07.176.378.281.246.641.123.984a19.79 19.79 0 0 1-.606 1.608c-.07.185-.246.334-.413.448-.105.079-.272.097-.422.114-1.09.114-2.188.22-3.278.316-.914.088-1.836.141-2.75.22-.492.035-.685.351-.51.808.018.053.097.114.167.132.65.185 1.309.334 1.951.527.87.255 1.731.562 2.601.817.659.202 1.327.343 1.995.518.264.07.518.158.773.237.65.22 1.3.439 1.951.65.325.097.659.149.984.255.475.149.94.316 1.415.474l-.026.105c-.351-.079-.703-.149-1.054-.228a34.267 34.267 0 0 1-1.38-.334c-.703-.185-1.406-.387-2.118-.571-.343-.097-.694-.167-1.046-.264-.791-.211-1.582-.448-2.373-.65-.694-.185-1.406-.334-2.1-.501-.255-.061-.501-.141-.747-.22-.659-.202-1.327-.369-1.968-.615-.738-.272-1.45-.606-2.17-.905-.141-.053-.316-.044-.474-.044-1.459-.018-2.909.009-4.367-.061-1.248-.061-2.495-.237-3.743-.369-.65-.079-1.309-.132-1.942-.272-1.09-.246-2.17-.545-3.251-.826a78.675 78.675 0 0 1-1.898-.518c-.615-.176-1.23-.36-1.845-.536-.677-.193-1.362-.378-2.047-.571-.281-.079-.562-.167-.844-.255-.624-.193-1.239-.395-1.872-.58a37.878 37.878 0 0 0-1.731-.483c-.158-.044-.334-.009-.527-.009.053.264-.088.36-.308.474-.773.387-1.529.817-2.293 1.221-.633.334-1.274.659-1.924.967-.852.404-1.643.887-2.355 1.494-.395.334-.817.641-1.221.958-.246.202-.51.123-.773.053-.633-.158-1.274-.29-1.898-.474-.343-.105-.554-.378-.606-.756-.061-.536-.141-1.072-.211-1.617-.079-.694-.123-1.397-.255-2.091-.035-.167-.299-.343-.492-.439-1.248-.589-1.678-2.241-1.274-3.383.079-.228.343-.272.501-.035.422.624 1.09.808 1.749.993.149.044.395.158.466-.149.088-.343-.009-.536-.299-.624-1.186-.36-2.372-.721-3.559-1.072-.624-.185-1.248-.325-1.863-.501-.879-.255-1.749-.536-2.619-.791-.624-.193-1.257-.36-1.88-.545-.694-.202-1.38-.422-2.074-.624-.598-.176-1.204-.316-1.793-.518-.861-.299-1.731-.589-2.557-.967a9.873 9.873 0 0 1-2.821-1.942A16.799 16.799 0 0 1 .35 6.735c-.176-.22-.237-.527-.351-.8v-.958C.333 3.931 1.053 3.202 1.967 2.64c.738-.457 1.494-.896 2.241-1.353.677-.404 1.388-.729 2.17-.896C6.914.277 7.441.136 7.977.004h2.047zm3.067 9.947c.123.211.782.413 1.09.325-.308-.325-.721-.255-1.098-.316-.044-.053-.079-.141-.132-.158-.518-.167-1.037-.316-1.555-.483-.51-.158-1.019-.316-1.538-.475-.334-.097-.668-.176-1.002-.281-.378-.114-.738-.246-1.107-.378-.149-.053-.281-.114-.431-.167-.334-.105-.668-.202-1.002-.308-.009.044-.026.088-.035.132.351.123.703.237 1.054.369.308.114.606.255.914.36.756.264 1.503.51 2.267.747.325.105.685.141 1.002.272.51.202 1.019.36 1.573.36zM30.35 8.251c-.8.097-1.555.202-2.32.29-.65.07-1.309.123-1.959.202-.87.105-1.731.22-2.601.334-.466.062-.94.123-1.415.185-.22.026-.448.062-.677.079a.375.375 0 0 1-.22-.105c-.018-.026.035-.158.079-.193.466-.325.931-.633 1.397-.949.228-.149.466-.29.694-.439-.984-.343-1.933-.589-2.882-.844-.589-.158-1.177-.308-1.757-.483-.641-.185-1.265-.404-1.898-.589-.58-.176-1.169-.316-1.757-.492-.07-.018-.123-.123-.185-.193.079-.053.149-.141.237-.149.176-.018.369-.009.545.035.554.132 1.107.29 1.661.431.721.185 1.45.343 2.17.536.773.193 1.538.422 2.311.633.589.158 1.177.299 1.757.483.756.255 1.503.422 2.32.264.589-.114 1.204-.097 1.81-.141a.61.61 0 0 0-.325-.246c-.369-.105-.738-.185-1.107-.29-.58-.158-1.151-.334-1.722-.51-.615-.185-1.221-.395-1.836-.571-.677-.193-1.353-.343-2.03-.545-1.09-.325-2.17-.694-3.251-1.019-1.019-.316-2.03-.606-3.049-.905-.923-.264-1.854-.501-2.768-.791-1.125-.351-2.276-.413-3.436-.351-.272.018-.554.07-.817.281.387.149.826.026 1.09.51-.387.132-.721.308-1.072.351-.852.097-1.713.132-2.575.193-.105.009-.246-.009-.325.044-.703.448-1.397.914-2.074 1.388-.132.088-.193.272-.343.474.36.061.606.114.861.149.422.061.852.044 1.248.167 1.028.316 2.039.703 3.058 1.054.351.114.721.193 1.072.299.422.123.844.255 1.265.378.615.176 1.239.343 1.854.527.387.114.773.246 1.16.36.633.185 1.257.351 1.889.536.967.272 1.924.554 2.891.835.589.167 1.186.29 1.757.51.413.149.8.264 1.248.185.545-.088 1.09-.149 1.643-.22 1.107-.141 2.223-.281 3.339-.404.545-.07 1.107-.088 1.652-.149 1.002-.123 2.003-.272 2.996-.387.439-.053.457-.053.431-.492 0-.079-.018-.158-.035-.255zm27.837-3.067-.026-.141c-.255.009-.51.009-.764.044-1.046.132-2.091.272-3.146.404-1.142.141-2.285.281-3.436.413-.343.035-.703.026-1.046.07-1.011.123-2.021.272-3.032.395-.36.044-.729.035-1.09.07-1.274.141-2.557.299-3.84.448-.097.009-.185.061-.272.097.053.088.088.202.158.246.132.088.29.202.431.185.914-.07 1.828-.158 2.733-.281 1.327-.185 2.636-.404 3.963-.598.747-.114 1.503-.176 2.249-.281.958-.132 1.907-.281 2.856-.431.817-.132 1.643-.272 2.469-.404.237-.035.474-.009.712-.044.36-.053.721-.123 1.081-.193zM22.416 17.275c-.176-.624-.026-.791.589-.659.685.141 1.371.29 2.056.431.905.185 1.81.351 2.715.554 1.116.255 2.223.536 3.33.8.185.044.378 0 .571 0a3.205 3.205 0 0 0-.694-.299c-.395-.114-.8-.202-1.186-.316-.641-.193-1.274-.395-1.916-.58-.633-.185-1.274-.36-1.916-.545-.624-.185-1.239-.378-1.863-.571-.466-.141-.931-.281-1.388-.422-.22-.062-.404-.088-.474.202-.088.404-.193.808-.281 1.213-.026.079-.026.167-.035.264.185-.026.343-.053.492-.07zm9.006-8.708c.378-.36.703-.756 1.107-1.019.404-.272.896-.413 1.344-.606-.483-.712-1.257-.659-1.757-.299-.606.439-.914 1.239-.694 1.924zm-15.658 2.259c.009-.035.018-.07.026-.114-.299-.088-.589-.185-.887-.272-.009.044-.026.097-.035.141.299.088.598.167.896.246z" style="fill:var(--color1, #656293)"/><path fill="#656293" d="M33.478 20.737c.422.097.844.185 1.257.29s.826.22 1.23.343c.685.202 1.353.422 2.039.624.641.185 1.3.343 1.951.518.351.105.685.228 1.028.334.29.088.589.167.879.246.633.176 1.265.343 1.889.527.606.176 1.204.378 1.81.562.369.114.756.202 1.134.308.677.211 1.353.431 2.03.633.659.185 1.327.351 1.986.527.228.061.448.132.677.202.633.193 1.265.395 1.898.589.334.097.668.193 1.002.299.729.211 1.467.431 2.197.641.272.079.536.149.808.22.633.176 1.257.343 1.88.527.65.185 1.292.387 1.942.589.281.088.554.167.835.246.641.185 1.283.343 1.916.536.641.185 1.265.395 1.907.589.272.088.554.176.835.246.668.185 1.327.36 1.986.554 1.046.308 2.083.633 3.119.958.035.009.07.053.088.149-.299-.053-.589-.097-.879-.167a77.583 77.583 0 0 1-2.021-.518c-.615-.158-1.23-.343-1.845-.518-.431-.114-.87-.237-1.3-.36-.659-.185-1.318-.369-1.977-.562-.316-.088-.624-.185-.94-.272-.641-.167-1.292-.325-1.924-.501-.685-.193-1.362-.413-2.039-.615a25.821 25.821 0 0 0-.852-.22c-.413-.105-.826-.202-1.239-.308-.237-.061-.474-.141-.712-.211-.641-.193-1.292-.395-1.933-.58-.316-.097-.633-.176-.949-.264-.773-.22-1.555-.457-2.337-.668-.65-.185-1.309-.316-1.959-.501-.65-.176-1.292-.395-1.942-.589-.606-.176-1.213-.343-1.819-.518-.694-.202-1.38-.422-2.065-.624-.281-.088-.562-.167-.835-.246-.747-.228-1.485-.457-2.223-.685-.589-.176-1.186-.334-1.775-.527-.8-.272-1.582-.562-2.381-.844-.756-.272-1.52-.536-2.285-.8a.594.594 0 0 0-.114-.044c.009-.035.018-.07.026-.114zM34.287 19.903c.343.079.694.141 1.037.228.448.105.896.22 1.336.351.589.167 1.177.36 1.775.536.36.114.721.22 1.09.325.677.202 1.353.413 2.03.615.351.097.703.176 1.046.281.694.211 1.388.439 2.1.641.659.193 1.327.343 1.986.527.633.185 1.248.395 1.872.58.378.114.756.202 1.142.308.325.088.65.176.975.281.395.123.791.255 1.186.378.685.202 1.38.413 2.074.606.65.185 1.3.351 1.951.536.369.105.729.246 1.098.36.334.097.668.185 1.002.281l2.188.659c.281.079.562.141.844.22.773.237 1.547.483 2.329.703.668.193 1.353.334 2.021.527.597.185 1.186.413 1.784.615.308.097.624.176.931.264.404.114.8.237 1.186.36.035.009.061.061.061.176-.624-.167-1.239-.343-1.863-.492-.685-.176-1.38-.316-2.065-.501-.677-.176-1.336-.387-2.012-.571-.378-.105-.764-.185-1.142-.281-.395-.114-.782-.255-1.186-.369-.351-.097-.712-.185-1.072-.281-.738-.202-1.467-.413-2.206-.615-.299-.079-.606-.158-.914-.237-1.195-.316-2.399-.624-3.594-.958-.641-.176-1.265-.404-1.898-.598-.29-.088-.58-.149-.879-.228-.597-.167-1.195-.334-1.784-.501-.694-.202-1.38-.422-2.074-.624-.29-.088-.58-.167-.879-.246-.896-.246-1.801-.474-2.698-.738-.844-.255-1.67-.554-2.504-.817-.58-.185-1.169-.351-1.74-.536-.518-.167-1.019-.351-1.529-.527-.58-.202-1.169-.395-1.74-.615-.439-.167-.861-.378-1.283-.562 0-.018.009-.044.018-.061zM50.912 31.818c-.896-.22-1.801-.439-2.698-.668-.316-.07-.633-.141-.958-.22-1.002-.246-2.012-.474-3.014-.738-.923-.237-1.836-.527-2.759-.782-.65-.185-1.309-.351-1.959-.527-.281-.079-.562-.167-.844-.255-1.134-.343-2.276-.703-3.418-1.037-.668-.202-1.353-.343-2.021-.536a82.852 82.852 0 0 1-2.539-.791c-.589-.185-1.186-.36-1.766-.562a58.208 58.208 0 0 1-2.047-.782c-.325-.123-.641-.272-.958-.413.009-.044.026-.079.035-.123l.958.237c.413.114.826.22 1.239.343.65.193 1.292.395 1.942.589.36.105.738.193 1.107.299.668.202 1.327.413 1.995.615.299.088.597.176.905.255.387.105.791.193 1.177.29.211.061.404.141.615.202.641.202 1.283.404 1.924.598l.87.264c.615.167 1.239.325 1.854.501.606.176 1.213.369 1.81.545.369.114.738.22 1.107.325.721.211 1.441.431 2.162.641.281.088.562.167.844.246.641.176 1.292.325 1.916.527.641.202 1.265.457 1.898.677.211.07.439.097.659.149-.018.044-.026.088-.035.132zM84.215 5.044c2.364.562 4.683 1.3 7.012 1.968 2.337.668 4.648 1.406 6.968 2.109l-.026.105c-.167-.026-.343-.053-.51-.088-.351-.07-.694-.158-1.046-.228-.439-.105-.879-.185-1.318-.299-.413-.097-.817-.228-1.23-.343-.404-.105-.817-.185-1.221-.29-.8-.202-1.59-.404-2.381-.615-.659-.176-1.309-.351-1.951-.536-.246-.07-.483-.149-.712-.228-.844-.308-1.687-.606-2.531-.931-.369-.141-.721-.334-1.081-.51l.026-.114z" style="fill:var(--color1, #656293)"/></symbol></defs></svg>